<svg width="20" height="20" viewBox="0 0 20 20" fill="none" xmlns="http://www.w3.org/2000/svg">
<path d="M7.50295 2.25722C7.19922 1.4979 6.46381 1 5.646 1H2.89474C1.8483 1 1 1.84834 1 2.89478C1 11.7895 8.21078 19 17.1055 19C18.1519 19 19 18.1518 19 17.1053L18.9999 14.354C18.9999 13.5362 18.5019 12.8009 17.7426 12.4971L15.1071 11.4429C14.4251 11.1701 13.6485 11.293 13.0842 11.7633L12.4031 12.3307C11.6084 12.9929 10.44 12.94 9.70854 12.2085L7.79136 10.2915C7.05993 9.56007 7.00722 8.39154 7.66943 7.59688L8.23682 6.91597C8.7071 6.35163 8.83002 5.57493 8.55719 4.89286L7.50295 2.25722Z" stroke="#65D3D3" stroke-linecap="round" stroke-linejoin="round"/>
</svg>
