<svg width="58" height="58" viewBox="0 0 58 58" fill="none" xmlns="http://www.w3.org/2000/svg">
<path fill-rule="evenodd" clip-rule="evenodd" d="M9.66699 51.9583C9.66699 51.291 10.208 50.75 10.8753 50.75H47.1253C47.7927 50.75 48.3337 51.291 48.3337 51.9583C48.3337 52.6257 47.7927 53.1667 47.1253 53.1667H10.8753C10.208 53.1667 9.66699 52.6257 9.66699 51.9583Z" fill="#65D3D3"/>
<path fill-rule="evenodd" clip-rule="evenodd" d="M21.75 9.66667H11.875C11.3227 9.66667 10.875 9.21895 10.875 8.66667V8.25C10.875 7.69772 11.3227 7.25 11.875 7.25H21.75V9.66667Z" fill="#65D3D3"/>
<path fill-rule="evenodd" clip-rule="evenodd" d="M47.1253 8.66667C47.1253 9.21895 46.6776 9.66667 46.1253 9.66667H36.042C35.4897 9.66667 35.042 9.21895 35.042 8.66667V8.25C35.042 7.69772 35.4897 7.25 36.042 7.25H46.1253C46.6776 7.25 47.1253 7.69772 47.1253 8.25V8.66667Z" fill="#65D3D3"/>
<path fill-rule="evenodd" clip-rule="evenodd" d="M38.6663 44.9167C38.6663 45.469 38.2186 45.9167 37.6663 45.9167H20.333C19.7807 45.9167 19.333 45.469 19.333 44.9167V44.5C19.333 43.9477 19.7807 43.5 20.333 43.5H37.6663C38.2186 43.5 38.6663 43.9477 38.6663 44.5V44.9167Z" fill="#65D3D3"/>
<path fill-rule="evenodd" clip-rule="evenodd" d="M29.2087 8.45837C29.7609 8.45837 30.2087 8.90609 30.2087 9.45837V17.125C30.2087 17.6773 29.7609 18.125 29.2087 18.125H28.792C28.2397 18.125 27.792 17.6773 27.792 17.125V9.45838C27.792 8.90609 28.2397 8.45837 28.792 8.45837H29.2087Z" fill="#65D3D3"/>
<path fill-rule="evenodd" clip-rule="evenodd" d="M24.167 13.0834C24.167 12.5311 24.6147 12.0834 25.167 12.0834H32.8337C33.3859 12.0834 33.8337 12.5311 33.8337 13.0834V13.5C33.8337 14.0523 33.3859 14.5 32.8337 14.5H25.167C24.6147 14.5 24.167 14.0523 24.167 13.5V13.0834Z" fill="#65D3D3"/>
<path fill-rule="evenodd" clip-rule="evenodd" d="M35.042 7.25004H22.9587V19.3334H35.042V7.25004ZM22.9587 4.83337H35.042C36.3767 4.83337 37.4587 5.91535 37.4587 7.25004V19.3334C37.4587 20.6681 36.3767 21.75 35.042 21.75H22.9587C21.6239 21.75 20.542 20.6681 20.542 19.3334V7.25004C20.542 5.91535 21.6239 4.83337 22.9587 4.83337Z" fill="#65D3D3"/>
<path fill-rule="evenodd" clip-rule="evenodd" d="M13.292 50.75V8.45837H15.7087V50.75H13.292Z" fill="#65D3D3"/>
<path fill-rule="evenodd" clip-rule="evenodd" d="M42.292 50.75V8.45837H44.7087V50.75H42.292Z" fill="#65D3D3"/>
<path fill-rule="evenodd" clip-rule="evenodd" d="M35.042 50.75V45.9166H37.4587V50.75H35.042Z" fill="#65D3D3"/>
<path fill-rule="evenodd" clip-rule="evenodd" d="M20.542 50.75V45.9166H22.9587V50.75H20.542Z" fill="#65D3D3"/>
<path d="M19.333 25.1666C19.333 24.6143 19.7807 24.1666 20.333 24.1666H23.1663C23.7186 24.1666 24.1663 24.6143 24.1663 25.1666V26.7916C24.1663 27.3439 23.7186 27.7916 23.1663 27.7916H20.333C19.7807 27.7916 19.333 27.3439 19.333 26.7916V25.1666Z" fill="#65D3D3"/>
<path d="M19.333 31.2084C19.333 30.6561 19.7807 30.2084 20.333 30.2084H23.1663C23.7186 30.2084 24.1663 30.6561 24.1663 31.2084V32.8334C24.1663 33.3857 23.7186 33.8334 23.1663 33.8334H20.333C19.7807 33.8334 19.333 33.3857 19.333 32.8334V31.2084Z" fill="#65D3D3"/>
<path d="M19.333 37.25C19.333 36.6977 19.7807 36.25 20.333 36.25H23.1663C23.7186 36.25 24.1663 36.6977 24.1663 37.25V38.875C24.1663 39.4273 23.7186 39.875 23.1663 39.875H20.333C19.7807 39.875 19.333 39.4273 19.333 38.875V37.25Z" fill="#65D3D3"/>
<path d="M26.583 25.1666C26.583 24.6143 27.0307 24.1666 27.583 24.1666H30.4163C30.9686 24.1666 31.4163 24.6143 31.4163 25.1666V26.7916C31.4163 27.3439 30.9686 27.7916 30.4163 27.7916H27.583C27.0307 27.7916 26.583 27.3439 26.583 26.7916V25.1666Z" fill="#65D3D3"/>
<path d="M26.583 31.2084C26.583 30.6561 27.0307 30.2084 27.583 30.2084H30.4163C30.9686 30.2084 31.4163 30.6561 31.4163 31.2084V32.8334C31.4163 33.3857 30.9686 33.8334 30.4163 33.8334H27.583C27.0307 33.8334 26.583 33.3857 26.583 32.8334V31.2084Z" fill="#65D3D3"/>
<path d="M26.583 37.25C26.583 36.6977 27.0307 36.25 27.583 36.25H30.4163C30.9686 36.25 31.4163 36.6977 31.4163 37.25V38.875C31.4163 39.4273 30.9686 39.875 30.4163 39.875H27.583C27.0307 39.875 26.583 39.4273 26.583 38.875V37.25Z" fill="#65D3D3"/>
<path d="M33.833 25.1666C33.833 24.6143 34.2807 24.1666 34.833 24.1666H37.6663C38.2186 24.1666 38.6663 24.6143 38.6663 25.1666V26.7916C38.6663 27.3439 38.2186 27.7916 37.6663 27.7916H34.833C34.2807 27.7916 33.833 27.3439 33.833 26.7916V25.1666Z" fill="#65D3D3"/>
<path d="M33.833 31.2084C33.833 30.6561 34.2807 30.2084 34.833 30.2084H37.6663C38.2186 30.2084 38.6663 30.6561 38.6663 31.2084V32.8334C38.6663 33.3857 38.2186 33.8334 37.6663 33.8334H34.833C34.2807 33.8334 33.833 33.3857 33.833 32.8334V31.2084Z" fill="#65D3D3"/>
<path d="M33.833 37.25C33.833 36.6977 34.2807 36.25 34.833 36.25H37.6663C38.2186 36.25 38.6663 36.6977 38.6663 37.25V38.875C38.6663 39.4273 38.2186 39.875 37.6663 39.875H34.833C34.2807 39.875 33.833 39.4273 33.833 38.875V37.25Z" fill="#65D3D3"/>
</svg>
