<svg width="58" height="58" viewBox="0 0 58 58" fill="none" xmlns="http://www.w3.org/2000/svg">
<path d="M14.4997 12.0833C15.8344 12.0833 16.9163 11.0014 16.9163 9.66667C16.9163 8.33198 15.8344 7.25 14.4997 7.25C13.6051 7.25 12.8242 7.73599 12.4064 8.45833H12.083C10.081 8.45833 8.45801 10.0813 8.45801 12.0833V22.9583H10.8747V12.0833C10.8747 11.416 11.4157 10.875 12.083 10.875H12.4064C12.8242 11.5973 13.6051 12.0833 14.4997 12.0833Z" fill="#65D3D3"/>
<path fill-rule="evenodd" clip-rule="evenodd" d="M12.2774 22.9583H10.8755H8.45881C7.79147 22.9583 7.24481 23.5005 7.30537 24.1651C7.5863 27.2478 8.93693 30.1503 11.1436 32.357C12.7617 33.9751 14.754 35.1329 16.9171 35.7461V38.6667C16.9171 40.2452 17.9261 41.5881 19.3343 42.0855C19.3858 46.8796 23.2881 50.75 28.0942 50.75C32.9325 50.75 36.8546 46.8279 36.8546 41.9896V37.1563C36.8546 34.6537 38.8833 32.625 41.3859 32.625C43.8885 32.625 45.9171 34.6537 45.9171 37.1563V40.0813C44.5092 40.5789 43.5005 41.9217 43.5005 43.5C43.5005 45.5021 45.1234 47.125 47.1255 47.125C49.1276 47.125 50.7505 45.5021 50.7505 43.5C50.7505 41.9217 49.7418 40.5789 48.3338 40.0813V37.1563C48.3338 33.3191 45.2231 30.2083 41.3859 30.2083C37.5487 30.2083 34.438 33.3191 34.438 37.1563V41.9896C34.438 45.4931 31.5978 48.3333 28.0942 48.3333C24.6226 48.3333 21.8023 45.5446 21.7512 42.0852C23.1588 41.5873 24.1671 40.2448 24.1671 38.6667V35.7461C26.3303 35.1329 28.3227 33.9751 29.9408 32.357C32.1475 30.1503 33.498 27.2478 33.779 24.1651C33.8396 23.5005 33.2928 22.9583 32.6255 22.9583V12.0833C32.6255 10.0813 31.0026 8.45833 29.0005 8.45833H28.6771C28.2593 7.73599 27.4783 7.25 26.5838 7.25C25.2491 7.25 24.1671 8.33198 24.1671 9.66667C24.1671 11.0014 25.2491 12.0833 26.5838 12.0833C27.4783 12.0833 28.2593 11.5973 28.6771 10.875H29.0005C29.6678 10.875 30.2088 11.416 30.2088 12.0833V22.9583H28.807C28.1397 22.9583 27.6092 23.5032 27.4955 24.1609C27.249 25.586 26.5683 26.9116 25.5318 27.948C24.2086 29.2714 22.4137 30.0149 20.5421 30.0149C18.6707 30.0149 16.8758 29.2714 15.5525 27.948C14.5161 26.9116 13.8353 25.586 13.5888 24.1609C13.4751 23.5032 12.9446 22.9583 12.2774 22.9583ZM29.7019 25.375H31.1453C30.6937 27.3562 29.6918 29.1884 28.232 30.6482C26.1926 32.6876 23.4264 33.8333 20.5421 33.8333C17.658 33.8333 14.8919 32.6876 12.8524 30.6482C11.3926 29.1884 10.3907 27.3562 9.93905 25.375H11.3824C11.8062 26.981 12.6488 28.4621 13.8436 29.6569C15.6202 31.4335 18.0298 32.4315 20.5421 32.4315C23.0546 32.4315 25.4642 31.4335 27.2408 29.6569C28.4356 28.4621 29.2782 26.981 29.7019 25.375ZM47.1255 42.2917C47.7928 42.2917 48.3338 42.8326 48.3338 43.5C48.3338 44.1674 47.7928 44.7083 47.1255 44.7083C46.4581 44.7083 45.9171 44.1674 45.9171 43.5C45.9171 42.8326 46.4581 42.2917 47.1255 42.2917ZM21.7505 36.25V38.6667C21.7505 39.334 21.2095 39.875 20.5421 39.875C19.8748 39.875 19.3338 39.334 19.3338 38.6667V36.25H21.7505Z" fill="#65D3D3"/>
</svg>
