<svg width="58" height="58" viewBox="0 0 58 58" fill="none" xmlns="http://www.w3.org/2000/svg">
<path fill-rule="evenodd" clip-rule="evenodd" d="M29.5592 18.1258C29.7585 17.9692 38.0804 11.4951 43.5808 17.8727C46.6004 21.3739 46.3444 25.0063 45.2239 28.5635L41.2816 39.8565C40.1289 43.783 39.307 44.9951 37.2874 46.701C36.0886 47.7135 34.7366 45.9646 33.3138 44.1239C32.0812 42.5293 30.7954 40.8658 29.5098 40.8697C28.203 40.8737 26.8965 42.5398 25.6465 44.1338C24.2048 45.9724 22.8383 47.715 21.6331 46.701C19.1996 44.6532 18.1324 41.8237 17.0169 37.2829C16.8022 36.4087 16.4755 35.3602 16.1153 34.2039C14.6044 29.3544 12.5028 22.6083 15.5853 18.8657C19.3919 14.2442 24.12 13.5002 29.5088 18.0887L29.5592 18.1258ZM26.9001 18.6004C25.0357 17.3193 23.4509 16.9118 22.1308 17.0157C20.5088 17.1432 18.8241 18.0794 17.1291 20.1373C15.8544 21.6849 15.7246 24.2994 16.4119 27.7151C16.7392 29.3418 17.2167 30.9892 17.6976 32.5539C17.8013 32.8915 17.9067 33.2298 18.0112 33.565C18.3755 34.7341 18.7283 35.8661 18.9592 36.8058C19.9804 40.9629 20.8687 43.1971 22.48 44.7712C22.8126 44.4619 23.2333 43.965 23.7899 43.2597C23.8766 43.1497 23.9666 43.0348 24.0593 42.9164C24.6295 42.1885 25.3048 41.3262 25.9937 40.6369C26.7255 39.9047 27.9352 38.8745 29.5038 38.8697C31.0796 38.8649 32.2861 39.9118 33.003 40.6389C33.6819 41.3276 34.3478 42.1901 34.9098 42.918C35.0017 43.037 35.0908 43.1524 35.1767 43.2629C35.7219 43.9638 36.1349 44.4586 36.4615 44.7681C37.1093 44.1824 37.5294 43.6934 37.8929 43.0853C38.3622 42.3003 38.7993 41.2118 39.3626 39.2931C39.372 39.2609 39.3823 39.229 39.3934 39.1973L43.3253 27.934C43.8394 26.2943 44.1005 24.797 43.9642 23.3899C43.8315 22.0193 43.3116 20.6229 42.0662 19.1789C40.0017 16.7851 37.4653 16.7489 35.0724 17.4904C33.8673 17.8638 32.7857 18.42 31.9936 18.8956C31.6964 19.074 31.4459 19.2375 31.2515 19.3701L35.0925 22.1943C35.5374 22.5215 35.6329 23.1474 35.3057 23.5923C34.9786 24.0373 34.3526 24.1328 33.9077 23.8056L28.4829 19.8168C28.4078 19.769 28.3352 19.7158 28.2657 19.6571L27.1076 18.8056C27.0267 18.7461 26.9574 18.6768 26.9001 18.6004ZM22.1293 45.0449L22.1332 45.043C22.1305 45.0443 22.1292 45.0449 22.1293 45.0449Z" fill="#65D3D3"/>
</svg>
