<svg width="58" height="58" viewBox="0 0 58 58" fill="none" xmlns="http://www.w3.org/2000/svg">
<path fill-rule="evenodd" clip-rule="evenodd" d="M15.95 25.375C15.95 25.375 16.9364 25.2418 18.3667 24.8604C22.1391 23.8543 29 21.1214 29 14.5504C29 10.5185 25.7316 7.25 21.6996 7.25H14.5504C10.5185 7.25 7.25 10.5185 7.25 14.5504C7.25 18.5822 10.5185 21.8507 14.5504 21.8507H15.95V25.375ZM18.3667 19.434H14.5504C11.8532 19.434 9.66667 17.2475 9.66667 14.5504C9.66667 11.8532 11.8532 9.66667 14.5504 9.66667H21.6996C24.3969 9.66667 26.5833 11.8532 26.5833 14.5504C26.5833 17.6714 24.3989 19.7502 21.4252 21.1844C20.3713 21.6926 19.3034 22.0726 18.3667 22.3501V19.434Z" fill="#65D3D3"/>
<path fill-rule="evenodd" clip-rule="evenodd" d="M17.5208 38.6667C20.1913 38.6667 22.3542 36.5038 22.3542 33.8333C22.3542 31.1629 20.1913 29 17.5208 29C14.8504 29 12.6875 31.1629 12.6875 33.8333C12.6875 36.5038 14.8504 38.6667 17.5208 38.6667ZM19.9375 33.8333C19.9375 35.169 18.8565 36.25 17.5208 36.25C16.1851 36.25 15.1042 35.169 15.1042 33.8333C15.1042 32.4976 16.1851 31.4167 17.5208 31.4167C18.8565 31.4167 19.9375 32.4976 19.9375 33.8333Z" fill="#65D3D3"/>
<path fill-rule="evenodd" clip-rule="evenodd" d="M7.25 46.239C7.25 42.8104 14.0929 41.0834 17.5208 41.0834C20.9488 41.0834 27.7917 42.8104 27.7917 46.239V50.75H7.25V46.239ZM9.66667 48.3334V46.239C9.66664 46.2281 9.66658 46.2027 9.69803 46.1418C9.73646 46.0674 9.82535 45.9357 10.0153 45.7597C10.4132 45.391 11.0801 44.9882 12.0017 44.6176C13.8491 43.8746 16.1102 43.5 17.5208 43.5C18.9314 43.5 21.1926 43.8746 23.04 44.6176C23.9615 44.9882 24.6284 45.391 25.0264 45.7597C25.2163 45.9357 25.3052 46.0674 25.3436 46.1418C25.3751 46.2027 25.375 46.2281 25.375 46.239V48.3334H9.66667Z" fill="#65D3D3"/>
<path fill-rule="evenodd" clip-rule="evenodd" d="M45.3122 33.8333C45.3122 36.5038 43.1493 38.6667 40.4788 38.6667C37.8084 38.6667 35.6455 36.5038 35.6455 33.8333C35.6455 31.1629 37.8084 29 40.4788 29C43.1493 29 45.3122 31.1629 45.3122 33.8333ZM40.4788 36.25C41.8145 36.25 42.8955 35.169 42.8955 33.8333C42.8955 32.4976 41.8145 31.4167 40.4788 31.4167C39.1431 31.4167 38.0622 32.4976 38.0622 33.8333C38.0622 35.169 39.1431 36.25 40.4788 36.25Z" fill="#65D3D3"/>
<path fill-rule="evenodd" clip-rule="evenodd" d="M30.208 46.239C30.208 42.8104 37.0509 41.0834 40.4788 41.0834C43.9068 41.0834 50.7497 42.8104 50.7497 46.239V50.75H30.208V46.239ZM32.6247 48.3334V46.239C32.6247 46.2281 32.6246 46.2027 32.6561 46.1418C32.6945 46.0674 32.7833 45.9357 32.9733 45.7597C33.3713 45.391 34.0382 44.9882 34.9597 44.6176C36.8071 43.8746 39.0682 43.5 40.4788 43.5C41.8894 43.5 44.1506 43.8746 45.998 44.6176C46.9195 44.9882 47.5864 45.391 47.9844 45.7597C48.1744 45.9357 48.2632 46.0674 48.3016 46.1418C48.3331 46.2027 48.333 46.2281 48.333 46.239V48.3334H32.6247Z" fill="#65D3D3"/>
<path fill-rule="evenodd" clip-rule="evenodd" d="M40.6003 25.9862C42.0152 26.4312 43.017 26.5834 43.017 26.5834V23.059H43.4499C47.4819 23.059 50.7503 19.7906 50.7503 15.7588C50.7503 11.7269 47.4819 8.45837 43.4499 8.45837H38.7174C34.6854 8.45837 31.417 11.7269 31.417 15.7588C31.417 22.158 37.2008 24.9172 40.6003 25.9862ZM43.4499 20.6424H40.6003V23.4365C39.8961 23.1826 39.1283 22.857 38.3694 22.4453C35.8528 21.0799 33.8337 19.0298 33.8337 15.7588C33.8337 13.0615 36.0201 10.875 38.7174 10.875H43.4499C46.1472 10.875 48.3337 13.0615 48.3337 15.7588C48.3337 18.4559 46.1472 20.6424 43.4499 20.6424Z" fill="#65D3D3"/>
</svg>
