<svg width="58" height="58" viewBox="0 0 58 58" fill="none" xmlns="http://www.w3.org/2000/svg">
<path fill-rule="evenodd" clip-rule="evenodd" d="M28.9997 17.1364C18.3663 12.3909 8.45801 22.4089 4.83301 29C8.45801 34.2727 18.3663 43.5 28.9997 43.5C39.633 43.5 49.5413 34.2727 53.1663 29C49.5413 22.409 39.8747 11.8637 28.9997 17.1364ZM50.2717 28.8501C48.5027 26.0472 45.7597 22.8148 42.4673 20.6341C38.7109 18.1462 34.4957 17.1574 30.0539 19.3109C29.4123 19.622 28.6661 19.6339 28.0148 19.3431C23.6736 17.4058 19.4128 18.3982 15.5941 20.8504C12.2724 22.9836 9.49645 26.11 7.73214 28.8556C9.50956 31.1036 12.289 33.8903 15.6692 36.2441C19.7077 39.0561 24.3618 41.0833 28.9997 41.0833C33.6375 41.0833 38.2916 39.0561 42.3301 36.2441C45.7132 33.8883 48.4944 31.0989 50.2717 28.8501Z" fill="#65D3D3"/>
<path fill-rule="evenodd" clip-rule="evenodd" d="M15.1708 28.9493C18.9505 30.1984 23.8578 31.4166 29 31.4166C34.0706 31.4166 38.9128 30.1633 42.6958 28.9068C38.8543 27.6853 33.9132 26.5833 29 26.5833C24.0284 26.5833 19.029 27.7116 15.1708 28.9493ZM10.9157 27.911C15.0408 26.256 21.9943 24.1666 29 24.1666C35.8882 24.1666 42.7259 26.1866 46.8743 27.8275C47.8754 28.2235 47.8141 29.6324 46.806 30.0098C42.792 31.5121 36.1526 33.8333 29 33.8333C21.7027 33.8333 14.9395 31.5443 10.9536 29.9979C9.98159 29.6208 9.94805 28.2992 10.9157 27.911Z" fill="#65D3D3"/>
</svg>
