<svg width="58" height="58" viewBox="0 0 58 58" fill="none" xmlns="http://www.w3.org/2000/svg">
<path fill-rule="evenodd" clip-rule="evenodd" d="M15.7317 14.4813C15.8011 13.6241 16.0244 12.8097 16.3744 12.0647H9.25C8.14543 12.0647 7.25 12.9633 7.25 14.0678V14.0678C7.25 14.6939 7.54317 15.2854 8.04218 15.6635L12.0833 18.7254V47.7686C12.0833 49.4254 13.4265 50.7686 15.0833 50.7686H42.9167C44.5735 50.7686 45.9167 49.4254 45.9167 47.7686V18.7679L50.4781 15.6958C51.0258 15.327 51.3542 14.7099 51.3542 14.0495V14.0495C51.3542 12.9533 50.4655 12.0647 49.3693 12.0647H29.5423C29.8922 12.8097 30.1155 13.6241 30.185 14.4813H47.9551L43.5 17.4819V46.3519C43.5 47.4565 42.6046 48.3519 41.5 48.3519H16.5C15.3954 48.3519 14.5 47.4565 14.5 46.3519V17.5245L10.4837 14.4813H15.7317Z" fill="#65D3D3"/>
<path fill-rule="evenodd" clip-rule="evenodd" d="M24.167 32.4167C24.167 31.8644 23.7193 31.4167 23.167 31.4167H20.3337C19.7814 31.4167 19.3337 31.8644 19.3337 32.4167V35.25C19.3337 35.8023 19.7814 36.25 20.3337 36.25H23.167C23.7193 36.25 24.167 35.8023 24.167 35.25V32.4167ZM18.917 29C17.8124 29 16.917 29.8954 16.917 31V36.6667C16.917 37.7712 17.8124 38.6667 18.917 38.6667H24.5837C25.6882 38.6667 26.5837 37.7712 26.5837 36.6667V31C26.5837 29.8954 25.6882 29 24.5837 29H18.917Z" fill="#65D3D3"/>
<path fill-rule="evenodd" clip-rule="evenodd" d="M38.6667 32.4167C38.6667 31.8644 38.219 31.4167 37.6667 31.4167H32.4167C31.8644 31.4167 31.4167 31.8644 31.4167 32.4167V48.3333H38.6667V32.4167ZM31 29C29.8954 29 29 29.8954 29 31V50.75H41.0833V31C41.0833 29.8954 40.1879 29 39.0833 29H31Z" fill="#65D3D3"/>
<path fill-rule="evenodd" clip-rule="evenodd" d="M30.208 14.5C30.208 18.5041 26.9621 21.75 22.958 21.75C18.954 21.75 15.708 18.5041 15.708 14.5C15.708 10.4959 18.954 7.25 22.958 7.25C26.9621 7.25 30.208 10.4959 30.208 14.5ZM22.958 10.875C23.6254 10.875 24.1663 11.416 24.1663 12.0833V13.2917H25.3747C26.042 13.2917 26.583 13.8327 26.583 14.5V14.5C26.583 15.1673 26.042 15.7083 25.3747 15.7083H24.1663V16.9167C24.1663 17.584 23.6254 18.125 22.958 18.125V18.125C22.2907 18.125 21.7497 17.584 21.7497 16.9167V15.7083H20.5413C19.874 15.7083 19.333 15.1673 19.333 14.5V14.5C19.333 13.8327 19.874 13.2917 20.5413 13.2917H21.7497V12.0833C21.7497 11.416 22.2907 10.875 22.958 10.875V10.875Z" fill="#65D3D3"/>
</svg>
