<svg width="32" height="32" viewBox="0 0 32 32" fill="none" xmlns="http://www.w3.org/2000/svg">
<g id="Solid/Files/Clipboard">
<g id="Icon">
<path fill-rule="evenodd" clip-rule="evenodd" d="M14.6667 3C12.6416 3 11 4.64162 11 6.66667V9.33333C11 9.88562 11.4477 10.3333 12 10.3333H20C20.5523 10.3333 21 9.88562 21 9.33333V6.66667C21 4.64162 19.3584 3 17.3333 3H14.6667ZM13 6.66667C13 5.74619 13.7462 5 14.6667 5H17.3333C18.2538 5 19 5.74619 19 6.66667V8.33333H13V6.66667Z" fill="white"/>
<path d="M9.00461 6.80644C9.00495 6.6195 8.8178 6.49088 8.64924 6.57169C7.06881 7.32935 6 8.94262 6 10.7806V24.7665C6 27.0475 7.69908 28.9713 9.96263 29.2533C13.9721 29.7526 18.0279 29.7526 22.0374 29.2533C24.3009 28.9713 26 27.0475 26 24.7665V10.7806C26 8.94238 24.9355 7.32893 23.3554 6.57139C23.187 6.49067 23 6.61895 23 6.80568V9.33334C23 10.9902 21.6569 12.3333 20 12.3333H12C10.3431 12.3333 9 10.9902 9 9.33334L9.00461 6.80644Z" fill="white"/>
</g>
</g>
</svg>
