<svg width="32" height="32" viewBox="0 0 32 32" fill="none" xmlns="http://www.w3.org/2000/svg">
<path d="M25.2733 4.14094C25.6638 3.75042 25.6638 3.11726 25.2733 2.72673C24.8828 2.33621 24.2496 2.33621 23.8591 2.72673L22.9163 3.66954C22.2557 4.33012 22.2894 5.35661 22.8658 5.9997C26.7357 10.318 26.5954 16.961 22.4448 21.1115C20.2981 23.2582 17.4847 24.3322 14.671 24.3333L14.6667 24.3333L14.6626 24.3333C12.039 24.3325 9.41567 23.3988 7.33304 21.5324C6.68995 20.9561 5.66346 20.9223 5.00288 21.5829L4.06007 22.5257C3.66955 22.9162 3.66955 23.5494 4.06007 23.9399C4.4506 24.3305 5.08376 24.3305 5.47429 23.9399L6.20822 23.206C8.36793 25.0601 10.9917 26.0898 13.6667 26.295V28.3333H11.3333C10.7811 28.3333 10.3333 28.781 10.3333 29.3333C10.3333 29.8856 10.7811 30.3333 11.3333 30.3333H18C18.5523 30.3333 19 29.8856 19 29.3333C19 28.781 18.5523 28.3333 18 28.3333H15.6667V26.2951C18.6529 26.0661 21.5751 24.8097 23.8591 22.5257C28.698 17.6868 28.9247 9.98298 24.5393 4.87488L25.2733 4.14094Z" fill="white"/>
<path fill-rule="evenodd" clip-rule="evenodd" d="M6.00001 13.3333C6.00001 8.54687 9.88021 4.66667 14.6667 4.66667C19.4531 4.66667 23.3333 8.54687 23.3333 13.3333C23.3333 18.1198 19.4531 22 14.6667 22C9.88021 22 6.00001 18.1198 6.00001 13.3333ZM17.3333 8.33333C15.3083 8.33333 13.6667 9.97496 13.6667 12C13.6667 14.025 15.3083 15.6667 17.3333 15.6667C19.3584 15.6667 21 14.025 21 12C21 9.97496 19.3584 8.33333 17.3333 8.33333ZM8.33334 16.6667C8.33334 15.7462 9.07954 15 10 15C10.9205 15 11.6667 15.7462 11.6667 16.6667C11.6667 17.5871 10.9205 18.3333 10 18.3333C9.07954 18.3333 8.33334 17.5871 8.33334 16.6667Z" fill="white"/>
</svg>
