<svg width="32" height="32" viewBox="0 0 32 32" fill="none" xmlns="http://www.w3.org/2000/svg">
<g id="Solid/Status/Shield">
<path id="Icon" d="M17.5475 5.87613C16.5955 5.30285 15.4045 5.30285 14.4524 5.87613L13.764 6.29065C12.0937 7.29644 10.2185 7.91362 8.27737 8.09651L7.84366 8.13737C6.98754 8.21803 6.33333 8.93678 6.33333 9.79669V11.9885C6.33333 15.6934 7.83744 19.2395 10.5011 21.8145L14.8416 26.0105C15.4876 26.635 16.5124 26.635 17.1584 26.0105L21.4989 21.8145C24.1625 19.2395 25.6667 15.6934 25.6667 11.9885V9.79669C25.6667 8.93678 25.0124 8.21803 24.1563 8.13737L23.7226 8.09651C21.7814 7.91362 19.9063 7.29644 18.2359 6.29065L17.5475 5.87613Z" fill="white"/>
</g>
</svg>
