<?xml version="1.0" encoding="utf-8"?><svg viewBox="0 0 58 58" xmlns="http://www.w3.org/2000/svg" xmlns:xlink="http://www.w3.org/1999/xlink"><style>:root>svg{display:none}:root>svg:target{display:block}</style><svg viewBox="0 0 26 26" id="arrow" xmlns="http://www.w3.org/2000/svg"><path d="M9.4 16.6l7.2-7.2m0 0h-4m4 0v4"/><rect x="1" y="1" width="24" height="24" rx="12"/></svg><svg viewBox="0 0 26 26" id="arrow-main" xmlns="http://www.w3.org/2000/svg"><g stroke-linecap="round"><path d="M9.4 16.6l7.2-7.2m0 0h-4m4 0v4"/><rect x="1" y="1" width="24" height="24" rx="12"/></g></svg><svg viewBox="0 0 20 20" id="main-tel" xmlns="http://www.w3.org/2000/svg"><path d="M7.503 2.257A2 2 0 005.646 1H2.895A1.895 1.895 0 001 2.895C1 11.789 8.21 19 17.105 19A1.894 1.894 0 0019 17.105v-2.751a2 2 0 00-1.257-1.857l-2.636-1.054a2 2 0 00-2.023.32l-.68.568a2 2 0 01-2.695-.122L7.79 10.29a2 2 0 01-.122-2.694l.568-.681a2 2 0 00.32-2.023L7.503 2.257z"/></svg><svg viewBox="0 0 58 58" id="work-1" xmlns="http://www.w3.org/2000/svg"><path fill-rule="evenodd" clip-rule="evenodd" d="M29.56 18.126c.199-.157 8.52-6.63 14.02-.253 3.02 3.5 2.764 7.133 1.644 10.69l-3.942 11.293c-1.153 3.927-1.975 5.14-3.995 6.845-1.198 1.013-2.55-.736-3.973-2.577-1.233-1.595-2.519-3.258-3.804-3.254-1.307.004-2.614 1.67-3.864 3.264-1.441 1.838-2.808 3.581-4.013 2.567-2.433-2.048-3.5-4.877-4.616-9.418-.215-.874-.541-1.923-.902-3.08-1.51-4.849-3.612-11.595-.53-15.337 3.807-4.622 8.535-5.366 13.924-.777l.05.037zm-2.66.474c-1.864-1.28-3.45-1.688-4.77-1.584-1.621.127-3.306 1.063-5 3.121-1.276 1.548-1.405 4.162-.718 7.578.327 1.627.805 3.274 1.286 4.839.103.337.209.676.313 1.011.364 1.17.717 2.301.948 3.24 1.021 4.158 1.91 6.392 3.521 7.966.333-.31.753-.806 1.31-1.511l.27-.344c.57-.727 1.245-1.59 1.934-2.28.732-.731 1.941-1.762 3.51-1.766 1.576-.005 2.782 1.042 3.499 1.769.679.689 1.345 1.551 1.907 2.279l.267.345c.545.7.958 1.196 1.285 1.505.647-.586 1.067-1.075 1.43-1.683.47-.785.907-1.873 1.47-3.792l.031-.096 3.932-11.263c.514-1.64.775-3.137.64-4.544-.134-1.37-.653-2.767-1.899-4.211-2.064-2.394-4.6-2.43-6.994-1.689-1.205.374-2.286.93-3.078 1.406-.298.178-.548.341-.742.474l3.84 2.824a1 1 0 01-1.184 1.612l-5.425-3.99a2.005 2.005 0 01-.217-.159l-1.158-.851a.997.997 0 01-.208-.206zm-4.77 26.445l.003-.002-.004.002z"/></svg><svg viewBox="0 0 58 58" id="work-2" xmlns="http://www.w3.org/2000/svg"><path fill-rule="evenodd" clip-rule="evenodd" d="M15.732 14.481c.07-.857.292-1.671.642-2.416H9.25a2.003 2.003 0 00-1.208 3.599l4.041 3.061V47.77a3 3 0 003 3h27.834a3 3 0 003-3V18.768l4.561-3.072a1.985 1.985 0 00-1.109-3.631H29.542c.35.745.573 1.56.643 2.416h17.77l-4.455 3v28.87a2 2 0 01-2 2h-25a2 2 0 01-2-2V17.526l-4.016-3.044h5.248z"/><path fill-rule="evenodd" clip-rule="evenodd" d="M24.167 32.417a1 1 0 00-1-1h-2.833a1 1 0 00-1 1v2.833a1 1 0 001 1h2.833a1 1 0 001-1v-2.833zM18.917 29a2 2 0 00-2 2v5.667a2 2 0 002 2h5.667a2 2 0 002-2V31a2 2 0 00-2-2h-5.667zm19.75 3.417a1 1 0 00-1-1h-5.25a1 1 0 00-1 1v15.916h7.25V32.417zM31 29a2 2 0 00-2 2v19.75h12.083V31a2 2 0 00-2-2H31zm-.792-14.5a7.25 7.25 0 11-14.5 0 7.25 7.25 0 0114.5 0zm-7.25-3.625c.667 0 1.208.541 1.208 1.208v1.209h1.209a1.208 1.208 0 010 2.417h-1.209v1.208a1.208 1.208 0 01-2.417 0v-1.209h-1.208a1.208 1.208 0 010-2.417h1.209v-1.208c0-.667.54-1.208 1.208-1.208z"/></svg><svg viewBox="0 0 58 58" id="work-3" xmlns="http://www.w3.org/2000/svg"><path fill-rule="evenodd" clip-rule="evenodd" d="M15.95 25.375s.986-.133 2.417-.515C22.139 23.854 29 21.121 29 14.55a7.3 7.3 0 00-7.3-7.3h-7.15a7.3 7.3 0 100 14.6h1.4v3.525zm2.417-5.941H14.55a4.884 4.884 0 110-9.767h7.15a4.884 4.884 0 014.883 4.883c0 3.121-2.184 5.2-5.158 6.634a20.536 20.536 0 01-3.058 1.166v-2.916zm-.847 19.233a4.832 4.832 0 004.834-4.834A4.832 4.832 0 0017.521 29a4.832 4.832 0 00-4.834 4.833 4.832 4.832 0 004.834 4.834zm2.418-4.834a2.415 2.415 0 01-2.417 2.417 2.415 2.415 0 01-2.417-2.417 2.415 2.415 0 012.417-2.416 2.415 2.415 0 012.416 2.416zM7.25 46.239c0-3.429 6.843-5.156 10.27-5.156 3.429 0 10.272 1.727 10.272 5.156v4.511H7.25v-4.511zm2.417 2.094V46.24c0-.01 0-.036.031-.097.038-.075.127-.206.317-.382.398-.369 1.065-.772 1.987-1.142 1.847-.743 4.108-1.118 5.519-1.118 1.41 0 3.672.375 5.519 1.118.922.37 1.588.773 1.986 1.142.19.176.28.307.318.382.031.06.031.086.031.097v2.094H9.667zm35.645-14.5a4.832 4.832 0 01-4.833 4.834 4.832 4.832 0 01-4.834-4.834A4.832 4.832 0 0140.48 29a4.832 4.832 0 014.833 4.833zM40.48 36.25a2.415 2.415 0 002.416-2.417 2.415 2.415 0 00-2.416-2.416 2.415 2.415 0 00-2.417 2.416 2.415 2.415 0 002.417 2.417zm-10.272 9.989c0-3.429 6.843-5.156 10.27-5.156 3.429 0 10.272 1.727 10.272 5.156v4.511H30.208v-4.511zm2.417 2.094V46.24c0-.01 0-.036.031-.097.038-.075.127-.206.317-.382.398-.369 1.065-.772 1.987-1.142 1.847-.743 4.108-1.118 5.519-1.118 1.41 0 3.672.375 5.519 1.118.922.37 1.588.773 1.986 1.142.19.176.28.307.318.382.031.06.031.086.031.097v2.094H32.625zM40.6 25.986c1.415.445 2.417.597 2.417.597V23.06h.433a7.3 7.3 0 100-14.6h-4.733a7.3 7.3 0 00-7.3 7.3c0 6.399 5.784 9.158 9.183 10.227zm2.85-5.344H40.6v2.794a16.286 16.286 0 01-2.23-.99c-2.517-1.366-4.536-3.416-4.536-6.687a4.884 4.884 0 014.883-4.884h4.733a4.884 4.884 0 110 9.767z"/></svg><svg viewBox="0 0 58 58" id="work-4" xmlns="http://www.w3.org/2000/svg"><path d="M14.5 12.083a2.417 2.417 0 10-2.094-3.625h-.323a3.625 3.625 0 00-3.625 3.625v10.875h2.417V12.083c0-.667.54-1.208 1.208-1.208h.323a2.415 2.415 0 002.094 1.208z"/><path fill-rule="evenodd" clip-rule="evenodd" d="M12.277 22.958H8.46c-.668 0-1.214.543-1.154 1.207a13.292 13.292 0 009.612 11.581v2.92a3.626 3.626 0 002.417 3.42 8.76 8.76 0 0017.52-.096v-4.834a4.531 4.531 0 119.063 0v2.925a3.626 3.626 0 001.209 7.044 3.625 3.625 0 001.208-7.044v-2.925a6.948 6.948 0 00-13.896 0v4.834a6.344 6.344 0 01-12.687.095 3.626 3.626 0 002.416-3.418v-2.92a13.29 13.29 0 009.612-11.582c.06-.665-.486-1.207-1.154-1.207V12.083A3.625 3.625 0 0029 8.458h-.323a2.416 2.416 0 00-4.51 1.209 2.417 2.417 0 004.51 1.208H29c.668 0 1.209.541 1.209 1.208v10.875h-1.402c-.667 0-1.198.545-1.311 1.203a7.056 7.056 0 01-13.907 0c-.114-.658-.644-1.203-1.312-1.203zm17.425 2.417h1.443a10.875 10.875 0 01-21.206 0h1.443a9.473 9.473 0 0018.32 0zm17.424 16.917a1.208 1.208 0 110 2.416 1.208 1.208 0 010-2.416zM21.75 36.25v2.417a1.208 1.208 0 01-2.417 0V36.25h2.416z"/></svg><svg viewBox="0 0 58 58" id="work-5" xmlns="http://www.w3.org/2000/svg"><path fill-rule="evenodd" clip-rule="evenodd" d="M9.667 51.958c0-.667.541-1.208 1.208-1.208h36.25a1.208 1.208 0 110 2.417h-36.25a1.208 1.208 0 01-1.208-1.209zM21.75 9.667h-9.875a1 1 0 01-1-1V8.25a1 1 0 011-1h9.875v2.417zm25.375-1a1 1 0 01-1 1H36.042a1 1 0 01-1-1V8.25a1 1 0 011-1h10.083a1 1 0 011 1v.417zm-8.459 36.25a1 1 0 01-1 1H20.333a1 1 0 01-1-1V44.5a1 1 0 011-1h17.333a1 1 0 011 1v.417zM29.209 8.458a1 1 0 011 1v7.667a1 1 0 01-1 1h-.417a1 1 0 01-1-1V9.458a1 1 0 011-1h.417z"/><path fill-rule="evenodd" clip-rule="evenodd" d="M24.167 13.083a1 1 0 011-1h7.667a1 1 0 011 1v.417a1 1 0 01-1 1h-7.667a1 1 0 01-1-1v-.417z"/><path fill-rule="evenodd" clip-rule="evenodd" d="M35.042 7.25H22.959v12.083h12.083V7.25zM22.959 4.833h12.083a2.417 2.417 0 012.417 2.417v12.083a2.417 2.417 0 01-2.417 2.417H22.959a2.417 2.417 0 01-2.417-2.417V7.25a2.417 2.417 0 012.417-2.417zM13.292 50.75V8.458h2.417V50.75h-2.417zm29 0V8.458h2.417V50.75h-2.417zm-7.25 0v-4.833h2.417v4.833h-2.417zm-14.5 0v-4.833h2.417v4.833h-2.417z"/><path d="M19.333 25.167a1 1 0 011-1h2.833a1 1 0 011 1v1.625a1 1 0 01-1 1h-2.833a1 1 0 01-1-1v-1.625zm0 6.041a1 1 0 011-1h2.833a1 1 0 011 1v1.625a1 1 0 01-1 1h-2.833a1 1 0 01-1-1v-1.625zm0 6.042a1 1 0 011-1h2.833a1 1 0 011 1v1.625a1 1 0 01-1 1h-2.833a1 1 0 01-1-1V37.25zm7.25-12.083a1 1 0 011-1h2.833a1 1 0 011 1v1.625a1 1 0 01-1 1h-2.833a1 1 0 01-1-1v-1.625zm0 6.041a1 1 0 011-1h2.833a1 1 0 011 1v1.625a1 1 0 01-1 1h-2.833a1 1 0 01-1-1v-1.625zm0 6.042a1 1 0 011-1h2.833a1 1 0 011 1v1.625a1 1 0 01-1 1h-2.833a1 1 0 01-1-1V37.25zm7.25-12.083a1 1 0 011-1h2.833a1 1 0 011 1v1.625a1 1 0 01-1 1h-2.833a1 1 0 01-1-1v-1.625zm0 6.041a1 1 0 011-1h2.833a1 1 0 011 1v1.625a1 1 0 01-1 1h-2.833a1 1 0 01-1-1v-1.625zm0 6.042a1 1 0 011-1h2.833a1 1 0 011 1v1.625a1 1 0 01-1 1h-2.833a1 1 0 01-1-1V37.25z"/></svg><svg viewBox="0 0 58 58" id="work-6" xmlns="http://www.w3.org/2000/svg"><path fill-rule="evenodd" clip-rule="evenodd" d="M29 17.136C18.366 12.391 8.458 22.41 4.833 29 8.458 34.273 18.366 43.5 29 43.5c10.633 0 20.541-9.227 24.166-14.5C49.541 22.409 39.875 11.864 29 17.136zM50.272 28.85c-1.77-2.803-4.512-6.035-7.805-8.216-3.756-2.488-7.971-3.477-12.413-1.323a2.416 2.416 0 01-2.04.032c-4.34-1.937-8.601-.945-12.42 1.507-3.322 2.134-6.098 5.26-7.862 8.006 1.778 2.248 4.557 5.034 7.937 7.388 4.039 2.812 8.693 4.84 13.33 4.84 4.639 0 9.293-2.028 13.331-4.84 3.383-2.356 6.164-5.145 7.942-7.394z"/><path fill-rule="evenodd" clip-rule="evenodd" d="M15.17 28.95c3.78 1.248 8.688 2.467 13.83 2.467 5.07 0 9.913-1.254 13.696-2.51-3.842-1.222-8.783-2.324-13.696-2.324-4.972 0-9.971 1.129-13.83 2.366zm-4.254-1.039C15.04 26.256 21.994 24.167 29 24.167c6.888 0 13.726 2.02 17.874 3.66 1.001.396.94 1.805-.068 2.183-4.014 1.502-10.653 3.823-17.806 3.823-7.297 0-14.06-2.289-18.046-3.835-.972-.377-1.006-1.699-.038-2.087z"/></svg></svg>