<svg width="32" height="32" viewBox="0 0 32 32" fill="none" xmlns="http://www.w3.org/2000/svg">
<g id="Solid/Status/University">
<path id="Icon" fill-rule="evenodd" clip-rule="evenodd" d="M16.4738 4.40239C16.1492 4.31027 15.8067 4.31035 15.4821 4.40274C14.7908 4.59947 14.0929 4.78168 13.3927 4.96451C10.2678 5.7804 6.82715 6.67876 3.8839 9.08053L2.49619 10.2129C1.38961 11.1159 1.39019 12.8844 2.49773 13.7865L3.86299 14.8985C4.87161 15.72 5.92277 16.3626 7 16.8866V23.0586C7 24.5697 7.92696 25.926 9.3348 26.4748L14.6681 28.5541C15.5246 28.888 16.4753 28.888 17.3319 28.5541L22.6652 26.4748C24.073 25.926 25 24.5697 25 23.0586V16.8977C26.0701 16.3764 27.1143 15.7371 28.1161 14.9195L28.3333 14.7423V21.3334C28.3333 21.8857 28.781 22.3334 29.3333 22.3334C29.8856 22.3334 30.3333 21.8857 30.3333 21.3334V12C30.3331 11.3323 30.056 10.6646 29.5023 10.2136L28.137 9.10161C25.1723 6.68692 21.5871 5.75185 18.559 4.96208C17.8602 4.77984 17.1638 4.59821 16.4738 4.40239ZM11.0655 17.083C10.5591 16.8627 9.96993 17.0947 9.74966 17.6012C9.52938 18.1076 9.76137 18.6968 10.2678 18.9171C11.9716 19.6581 13.7353 20.2644 15.5428 20.7283C15.8577 20.8091 16.1881 20.809 16.5031 20.728C18.3057 20.264 20.0641 19.6577 21.7625 18.9166C22.2687 18.6957 22.5 18.1063 22.2791 17.6001C22.0582 17.0939 21.4688 16.8626 20.9626 17.0835C19.3671 17.7797 17.7154 18.3498 16.0223 18.7865C14.324 18.3497 12.6667 17.7794 11.0655 17.083Z" fill="white"/>
</g>
</svg>
